<?xml version="1.0" standalone="no"?>
<!DOCTYPE svg PUBLIC "-//W3C//DTD SVG 20010904//EN"
 "http://www.w3.org/TR/2001/REC-SVG-20010904/DTD/svg10.dtd">
<svg version="1.0" xmlns="http://www.w3.org/2000/svg"
 width="1565.000000pt" height="1565.000000pt" viewBox="0 0 1565.000000 1565.000000"
 preserveAspectRatio="xMidYMid meet">
<metadata>
Created by potrace 1.14, written by Peter Selinger 2001-2017
</metadata>
<g transform="translate(0.000000,1565.000000) scale(0.100000,-0.100000)"
fill="#000000" stroke="none">
<path d="M12028 14525 c-2 -1 -35 -6 -74 -9 -39 -4 -80 -8 -92 -11 -11 -2 -44
-4 -73 -6 -30 -1 -70 -8 -89 -15 -19 -7 -82 -23 -140 -35 -58 -12 -118 -27
-135 -34 -16 -7 -54 -21 -83 -30 -29 -9 -102 -45 -162 -81 -61 -35 -110 -61
-110 -58 0 3 18 32 40 64 56 82 44 104 -41 78 -37 -11 -121 -87 -223 -202
l-35 -40 -46 43 c-48 44 -72 49 -68 13 2 -19 0 -19 -35 -10 -53 15 -187 4
-251 -21 -55 -20 -111 -65 -111 -87 0 -6 -12 -14 -27 -17 -19 -4 -81 -59 -185
-164 -86 -87 -163 -165 -171 -173 -17 -19 -83 -94 -162 -185 -105 -121 -157
-180 -169 -190 -6 -5 -27 -30 -46 -55 -19 -25 -69 -85 -110 -134 -86 -102 -95
-113 -212 -278 -70 -99 -220 -288 -273 -344 -5 -6 -35 -40 -65 -75 -30 -35
-98 -108 -150 -162 -52 -54 -99 -106 -104 -115 -5 -10 -16 -22 -25 -28 -13
-10 -13 -14 -2 -28 11 -13 8 -22 -22 -58 -31 -39 -50 -69 -99 -162 -9 -17 -18
-45 -21 -61 -3 -17 -8 -41 -11 -55 -15 -59 -23 -297 -12 -349 3 -13 8 -49 12
-80 3 -31 8 -65 10 -76 3 -11 7 -47 10 -80 5 -52 1 -70 -26 -135 -33 -76 -54
-114 -79 -140 -16 -17 -71 -130 -71 -147 0 -24 -21 -23 -70 3 -28 15 -50 30
-50 34 0 25 -152 40 -205 20 -16 -6 -56 -13 -90 -15 -33 -2 -107 -16 -164 -30
-78 -20 -130 -26 -202 -26 -68 0 -120 -6 -176 -21 -43 -11 -86 -21 -96 -22
-13 -1 -31 23 -63 83 -24 47 -48 87 -52 90 -4 4 -38 67 -75 141 -36 74 -102
191 -147 258 -136 209 -173 300 -135 332 21 18 22 475 1 487 -8 4 -55 91 -104
193 -50 102 -97 194 -104 205 -84 129 -232 270 -311 298 -67 23 -76 33 -35 41
59 11 178 86 178 113 0 20 -21 19 -94 -6 -97 -33 -252 -38 -311 -11 -22 11
-46 19 -52 20 -19 0 -115 61 -138 87 -11 12 -30 36 -43 53 -13 16 -31 30 -40
30 -32 0 -101 42 -151 93 -28 28 -51 56 -51 61 0 6 -28 38 -62 72 -97 95 -138
141 -138 152 0 6 -14 21 -31 34 -16 13 -45 36 -62 52 -18 16 -70 47 -117 69
-66 31 -100 56 -157 113 -40 41 -85 77 -101 80 -15 4 -46 20 -69 35 -23 16
-68 36 -100 44 -58 16 -194 22 -213 10 -20 -13 -32 6 -15 25 9 10 15 29 13 42
-3 20 -8 23 -40 21 -21 -1 -51 -11 -67 -22 -16 -12 -32 -21 -35 -21 -11 0 -6
47 9 83 9 21 15 67 15 107 0 63 -2 70 -20 70 -12 0 -36 -23 -66 -62 -83 -111
-292 -223 -474 -253 -49 -8 -63 -12 -169 -51 -51 -19 -96 -32 -99 -29 -3 3 8
20 25 38 31 33 59 82 73 129 9 30 -1 38 -54 38 -92 0 -278 -188 -318 -322 -6
-22 -23 -48 -37 -59 -22 -18 -26 -18 -34 -4 -6 11 1 36 22 81 17 37 28 70 25
75 -14 23 -33 3 -59 -61 l-28 -69 -28 60 c-41 86 -87 149 -109 149 -31 0 -50
-28 -50 -75 l0 -44 -88 31 c-74 26 -101 30 -182 30 -52 0 -132 -7 -178 -17
-45 -9 -95 -18 -110 -21 -15 -3 -47 -11 -72 -19 -195 -61 -369 -20 -411 98 -7
20 -16 37 -20 37 -16 0 -31 -74 -25 -119 13 -90 15 -86 -26 -83 -29 3 -39 -1
-48 -18 -6 -11 -8 -24 -6 -29 6 -9 -14 -20 -52 -27 -91 -18 -193 -77 -270
-157 -101 -105 -144 -166 -138 -193 7 -28 -11 -64 -80 -154 -58 -76 -219 -233
-249 -243 -15 -5 -25 -16 -25 -28 0 -10 -7 -19 -15 -19 -11 0 -15 -12 -15 -42
-1 -51 -48 -154 -69 -150 -7 1 -24 -4 -38 -13 -20 -13 -22 -19 -12 -31 9 -11
9 -18 -3 -32 -97 -113 -216 -263 -261 -327 -71 -102 -101 -132 -217 -219 -52
-39 -97 -73 -100 -76 -3 -3 -23 -19 -45 -35 -46 -34 -72 -55 -90 -72 -8 -7
-17 -13 -21 -13 -10 0 -44 -40 -60 -72 -17 -33 -18 -33 37 -9 39 17 148 42
237 55 39 5 42 -8 4 -28 -33 -17 -44 -37 -73 -136 -33 -109 -32 -230 1 -289
14 -24 35 -50 47 -58 21 -14 21 -14 22 47 0 72 21 143 56 190 l25 34 0 -139
c0 -131 2 -143 27 -192 14 -29 30 -53 35 -53 4 0 8 -15 8 -34 0 -22 9 -45 25
-64 14 -17 25 -34 25 -40 0 -5 7 -15 15 -22 20 -17 52 -89 61 -137 1 -7 10
-35 19 -63 9 -28 15 -60 12 -71 -3 -12 3 -53 13 -92 18 -66 17 -127 0 -127 -4
0 -11 -12 -15 -27 -12 -44 -13 -46 -29 -89 -24 -66 3 -161 63 -218 24 -23 38
-28 81 -28 76 1 102 9 210 63 54 27 102 49 108 49 20 0 24 -98 7 -165 -18 -68
-99 -211 -144 -255 -86 -83 -221 -264 -221 -295 0 -7 8 -16 17 -19 12 -5 30 5
58 33 54 54 200 161 220 161 9 0 5 -41 -7 -63 -6 -12 -28 -39 -49 -59 -63 -62
-84 -164 -84 -408 1 -165 20 -251 77 -347 52 -87 76 -113 104 -113 25 0 29 13
39 115 17 167 55 295 89 295 21 0 24 -9 14 -58 -13 -71 -13 -299 1 -369 14
-74 44 -165 69 -207 10 -17 19 -53 21 -81 1 -27 9 -57 16 -65 46 -52 75 -317
52 -475 -14 -92 -16 -110 -17 -165 -1 -36 -14 -85 -35 -140 -18 -47 -50 -132
-70 -190 -43 -122 -101 -235 -186 -361 -33 -49 -78 -129 -100 -177 -22 -48
-44 -95 -49 -105 -6 -9 -13 -37 -16 -61 -6 -38 -4 -46 15 -56 20 -10 21 -17
15 -58 -4 -26 -15 -74 -24 -107 -17 -58 -40 -169 -45 -223 -11 -107 -17 -160
-21 -182 -6 -32 -6 -338 0 -367 3 -12 8 -53 11 -90 4 -37 9 -70 10 -73 2 -3
20 -67 40 -142 19 -76 42 -150 50 -165 8 -15 24 -50 36 -76 15 -33 26 -47 38
-44 9 2 15 9 13 16 -10 46 -10 259 0 299 l12 47 8 -30 c4 -17 10 -59 13 -95 3
-36 10 -90 16 -120 6 -30 13 -68 15 -83 12 -68 100 -300 150 -399 36 -70 53
-114 49 -127 -7 -23 -58 -45 -230 -101 -71 -23 -134 -45 -140 -50 -5 -4 -74
-40 -152 -80 -78 -39 -163 -87 -188 -107 -42 -32 -46 -37 -39 -66 7 -36 108
-231 316 -617 140 -259 270 -519 292 -587 24 -74 27 -176 6 -254 -10 -35 -39
-131 -65 -214 -129 -414 -254 -854 -280 -990 -3 -16 -21 -88 -39 -160 -35
-135 -34 -165 3 -165 11 0 70 24 132 54 209 99 590 235 729 259 14 3 45 10 70
17 25 7 56 14 70 16 14 3 61 11 105 19 118 21 174 30 275 40 18 2 66 9 105 16
119 21 803 17 1050 -6 22 -2 90 -7 150 -10 61 -3 119 -7 130 -9 11 -2 51 -7
88 -11 37 -3 76 -8 85 -10 28 -5 114 -15 172 -20 152 -13 295 -34 329 -47 34
-13 48 -15 128 -23 37 -4 79 -8 93 -10 14 -3 48 -7 75 -10 28 -3 61 -8 75 -10
14 -2 61 -9 106 -15 44 -6 89 -12 100 -14 10 -2 42 -7 69 -10 28 -4 57 -9 65
-11 8 -2 42 -7 75 -10 32 -4 62 -8 65 -10 3 -2 34 -6 70 -10 36 -3 72 -8 80
-10 8 -2 39 -7 69 -10 30 -4 62 -8 71 -10 9 -2 41 -6 70 -10 29 -4 60 -8 69
-10 9 -1 45 -6 81 -11 36 -4 67 -8 70 -9 4 -1 51 -7 155 -20 17 -2 64 -9 105
-14 41 -6 95 -13 120 -16 86 -10 135 -16 205 -25 39 -5 95 -12 125 -15 30 -2
73 -7 95 -10 70 -9 118 -14 180 -20 33 -3 78 -8 100 -10 22 -2 67 -7 100 -10
33 -3 76 -8 95 -10 19 -2 76 -7 125 -11 50 -3 108 -8 130 -9 22 -2 78 -6 125
-10 47 -3 112 -8 145 -10 33 -3 116 -8 185 -11 69 -2 144 -7 167 -9 24 -2 102
-7 175 -10 73 -3 162 -8 198 -10 412 -27 1983 -26 2121 0 12 2 67 7 124 10 56
3 122 12 146 20 44 16 68 19 214 30 71 5 135 14 215 30 14 3 50 9 80 15 30 6
65 12 76 14 12 2 38 7 59 10 159 26 500 109 632 156 48 17 120 37 158 45 39 8
104 23 145 34 41 11 138 36 215 56 77 20 214 56 305 81 91 24 174 46 185 48
11 2 66 16 122 30 85 22 196 47 263 60 63 13 96 20 105 21 6 2 28 6 50 9 22 4
65 11 95 16 78 13 154 25 238 35 23 3 59 7 80 10 20 2 73 7 117 11 44 3 94 8
110 10 138 19 797 26 965 11 117 -11 260 -27 285 -32 11 -2 38 -7 60 -10 22
-3 83 -12 135 -20 52 -8 106 -17 120 -19 36 -5 60 11 60 39 0 14 -9 58 -21 98
-11 39 -22 79 -24 88 -9 42 -89 269 -138 394 -97 248 -188 449 -371 827 -26
53 -49 112 -52 130 -4 21 6 75 26 148 17 63 36 131 41 150 5 19 11 40 13 45 1
6 8 30 15 55 7 25 28 97 47 160 91 295 142 451 215 648 80 215 89 251 67 270
-15 11 -136 48 -188 56 -19 3 -44 7 -55 10 -11 2 -41 6 -66 10 -74 11 -102 16
-134 25 -16 5 -65 12 -108 14 -44 3 -81 8 -84 11 -3 3 6 38 20 78 36 101 50
173 41 200 -4 13 -7 25 -6 28 0 3 15 44 31 92 47 136 95 337 106 448 4 30 10
80 15 110 27 167 31 655 5 789 -1 9 -6 39 -9 66 -11 82 -26 177 -36 230 -6 28
-17 86 -26 130 -9 44 -17 87 -19 95 -6 36 -18 96 -21 105 -1 6 -5 26 -8 45
-28 153 -99 364 -151 444 -19 30 -31 57 -26 60 17 11 10 84 -9 106 -11 12 -22
32 -26 44 -3 11 -14 30 -24 41 -9 11 -50 83 -90 160 -203 388 -250 493 -320
710 -22 72 -56 168 -75 215 -54 136 -62 179 -64 328 -1 76 -17 99 -24 35 -2
-21 -4 2 -4 51 0 117 7 125 114 124 232 -1 419 75 690 279 111 84 145 116 244
227 45 51 48 54 86 84 28 21 198 302 252 415 38 80 76 190 86 248 3 16 8 44
11 62 9 48 11 216 3 267 -16 97 -20 118 -45 205 -64 229 -152 471 -266 726
-36 79 -73 164 -83 189 -11 25 -27 57 -37 72 -12 18 -18 45 -18 87 0 107 -59
214 -141 256 -33 17 -37 30 -13 39 26 10 -3 36 -41 36 -17 0 -53 11 -79 25
-120 64 -225 166 -404 395 -59 74 -109 137 -112 140 -3 3 -27 34 -53 70 -86
117 -161 212 -212 265 -27 29 -72 78 -99 110 -61 71 -128 115 -178 115 -55 0
-46 16 20 35 31 9 62 17 67 19 31 10 -53 16 -91 7 -55 -14 -66 -9 -54 25 14
35 12 95 -4 123 -13 23 -13 23 -39 -22 -50 -85 -139 -141 -239 -153 -52 -5
-55 -4 -168 66 -158 97 -313 172 -455 219 -66 22 -131 42 -145 45 -14 3 -45
10 -70 17 -25 6 -54 12 -65 14 -11 2 -33 7 -50 10 -110 20 -204 31 -335 40
-52 4 -109 10 -127 15 -17 4 -33 7 -35 5z m-2213 -4786 c22 -7 43 -12 47 -11
4 1 14 -11 23 -27 8 -16 25 -38 38 -48 36 -29 66 -142 62 -238 -2 -44 -6 -96
-10 -115 -9 -47 -62 -189 -76 -206 -6 -8 -9 -27 -5 -44 3 -17 1 -42 -5 -58 -6
-15 -12 -49 -15 -77 -13 -169 -47 -261 -185 -497 -110 -187 -211 -379 -204
-386 2 -2 -5 -22 -15 -43 -11 -21 -20 -49 -20 -63 0 -14 -20 -62 -44 -108 -49
-91 -94 -218 -101 -282 -2 -23 -5 -43 -6 -46 0 -3 -7 24 -13 60 -18 97 -6 482
15 504 5 6 9 22 9 37 0 25 12 70 30 114 25 62 42 95 50 100 6 3 10 17 10 31 0
36 26 81 80 138 79 83 126 225 135 405 2 57 9 109 14 115 17 22 32 87 32 140
0 68 -27 124 -93 193 l-51 51 61 44 c33 23 69 57 80 73 27 39 39 104 22 115
-10 6 -7 23 14 77 14 37 26 77 26 86 0 17 2 17 28 -1 15 -11 45 -25 67 -33z"/>
<path d="M8830 13330 c13 -24 26 -26 34 -4 9 23 8 24 -19 24 -23 0 -24 -2 -15
-20z"/>
</g>
</svg>
