<?xml version="1.0" encoding="utf-8"?>
<!-- Generator: Adobe Illustrator 16.0.0, SVG Export Plug-In . SVG Version: 6.00 Build 0)  -->
<!DOCTYPE svg PUBLIC "-//W3C//DTD SVG 1.1//EN" "http://www.w3.org/Graphics/SVG/1.1/DTD/svg11.dtd">
<svg version="1.1" id="Vrstva_1" xmlns="http://www.w3.org/2000/svg" xmlns:xlink="http://www.w3.org/1999/xlink" x="0px" y="0px"
	 width="370.83px" height="173.937px" viewBox="0 0 370.83 173.937" enable-background="new 0 0 370.83 173.937"
	 xml:space="preserve">
<path fill="#6D6E70" d="M145.07,76.979h3.074c2.357,0,3.381-0.997,3.381-3.347c0-1.685-1.332-3.117-3.433-3.117h-3.022V76.979z
	 M145.07,85.721c0,0.737-0.437,1.198-1.13,1.198c-0.691,0-1.128-0.461-1.128-1.198V69.798c0-0.69,0.357-1.225,1.203-1.225h4.178
	c2.871,0,5.589,1.942,5.589,4.907c0,3.679-2.257,5.058-4.974,5.159l-0.972,0.029l5.817,6.36c0.307,0.335,0.434,0.615,0.434,1.023
	c0,0.485-0.46,0.868-1.021,0.868c-0.461,0-0.77-0.228-1.029-0.509l-6.967-7.616V85.721z"/>
<path fill="#6D6E70" d="M161.127,84.977c2.769,0,3.741-2.707,3.741-5.007c0-2.301-0.972-5.007-3.741-5.007
	c-2.767,0-3.74,2.706-3.74,5.007C157.387,82.27,158.36,84.977,161.127,84.977 M161.127,73.018c3.844,0,5.999,3.347,5.999,6.951
	c0,3.602-2.155,6.95-5.999,6.95c-3.844,0-5.999-3.348-5.999-6.95C155.128,76.365,157.283,73.018,161.127,73.018"/>
<path fill="#6D6E70" d="M177.079,84.824c0.747,0,1.128,0.358,1.128,0.971c0,0.615-0.381,0.972-1.128,0.972h-8.126
	c-0.871,0-1.102-0.436-1.102-0.792c0-0.36,0.128-0.664,0.463-1.151l6.509-9.711h-5.587c-0.744,0-1.128-0.358-1.128-0.969
	c0-0.614,0.384-0.974,1.128-0.974h7.587c0.869,0,1.103,0.437,1.103,0.794c0,0.359-0.13,0.664-0.464,1.149l-6.587,9.66l0.078,0.051
	H177.079z"/>
<path fill="#6D6E70" d="M179.912,74.217c0-0.737,0.435-1.198,1.125-1.198c0.693,0,1.128,0.461,1.128,1.198v7.207
	c0,2.327,1.029,3.553,3.154,3.553c2.126,0,3.151-1.226,3.151-3.553v-7.207c0-0.737,0.438-1.198,1.13-1.198
	c0.689,0,1.126,0.461,1.126,1.198v7.286c0,3.985-2.667,5.416-5.407,5.416c-2.742,0-5.407-1.431-5.407-5.416V74.217z"/>
<path fill="#6D6E70" d="M201.839,78.104c0-1.941-1.074-3.141-2.922-3.141c-1.821,0-2.894,1.2-2.894,3.141v7.617
	c0,0.737-0.437,1.198-1.129,1.198c-0.694,0-1.13-0.461-1.13-1.198V74.217c0-0.737,0.436-1.198,1.13-1.198
	c0.692,0,1.129,0.461,1.129,1.198v0.411l0.052,0.05c0.537-0.689,1.382-1.659,3.433-1.659c1.334,0,2.714,0.561,3.743,2.3
	c0.997-1.432,2.201-2.3,4.177-2.3c2.103,0,4.741,1.327,4.741,5.162v7.54c0,0.737-0.435,1.198-1.127,1.198
	c-0.694,0-1.129-0.461-1.129-1.198v-7.617c0-1.941-1.075-3.141-2.922-3.141c-1.821,0-2.896,1.2-2.896,3.141v7.617
	c0,0.737-0.436,1.198-1.126,1.198c-0.694,0-1.13-0.461-1.13-1.198V78.104z"/>
<path fill="#6D6E70" d="M217.387,85.72c0,0.737-0.435,1.199-1.125,1.199c-0.692,0-1.13-0.462-1.13-1.199V74.216
	c0-0.737,0.438-1.198,1.13-1.198c0.69,0,1.125,0.461,1.125,1.198V85.72z M215.671,71.102c-0.435,0.179-0.643,0.231-0.872,0.231
	c-0.667,0-0.975-0.688-0.975-1.076c0-0.306,0.18-0.663,0.898-0.944l2.946-1.2c0.438-0.18,0.641-0.23,0.872-0.23
	c0.669,0,0.974,0.69,0.974,1.072c0,0.308-0.182,0.665-0.896,0.946L215.671,71.102z"/>
<path fill="#6D6E70" d="M228.507,78.104c0-1.941-1.076-3.141-2.92-3.141c-1.82,0-2.896,1.2-2.896,3.141v7.617
	c0,0.737-0.438,1.198-1.127,1.198c-0.691,0-1.129-0.461-1.129-1.198V74.217c0-0.737,0.438-1.198,1.129-1.198
	c0.689,0,1.127,0.461,1.127,1.198v0.411l0.051,0.05c0.539-0.689,1.387-1.659,3.435-1.659c1.333,0,2.717,0.561,3.741,2.3
	c1-1.432,2.203-2.3,4.179-2.3c2.102,0,4.739,1.327,4.739,5.162v7.54c0,0.737-0.433,1.198-1.125,1.198
	c-0.695,0-1.13-0.461-1.13-1.198v-7.617c0-1.941-1.076-3.141-2.921-3.141c-1.818,0-2.896,1.2-2.896,3.141v7.617
	c0,0.737-0.435,1.198-1.126,1.198s-1.13-0.461-1.13-1.198V78.104z"/>
<path fill="#6D6E70" d="M250.811,79.153c0-1.944-1.128-4.19-3.613-4.19c-2.795-0.104-3.792,2.119-3.87,4.19H250.811z
	 M243.327,80.836c0,2.326,1.484,4.14,4.021,4.14c3,0,3.771-1.838,4.616-1.838c0.409,0,0.818,0.355,0.818,0.996
	c0,1.099-2.793,2.785-5.457,2.785c-4.356,0-6.258-3.347-6.258-6.95c0-3.679,2.311-6.951,6.129-6.951c3.715,0,5.869,3.348,5.869,6.62
	c0,0.791-0.283,1.198-1.257,1.198H243.327z"/>
<path fill="#6D6E70" d="M269.87,84.824c0.745,0,1.128,0.358,1.128,0.971c0,0.615-0.383,0.972-1.128,0.972h-8.122
	c-0.875,0-1.102-0.436-1.102-0.792c0-0.36,0.126-0.664,0.459-1.151l6.511-9.711h-5.589c-0.742,0-1.128-0.358-1.128-0.969
	c0-0.614,0.386-0.974,1.128-0.974h7.588c0.87,0,1.101,0.437,1.101,0.794c0,0.359-0.127,0.664-0.461,1.149l-6.587,9.66l0.078,0.051
	H269.87z"/>
<path fill="#6D6E70" d="M272.258,74.988c-0.152-0.411-0.229-0.665-0.229-0.922c0-0.664,0.486-1.048,1.023-1.048
	c0.744,0,1,0.357,1.181,0.868l3.102,9.404h0.049l3.105-9.404c0.177-0.511,0.435-0.868,1.18-0.868c0.536,0,1.021,0.385,1.021,1.048
	c0,0.257-0.075,0.511-0.23,0.922l-3.92,10.962c-0.231,0.663-0.463,0.968-1.18,0.968c-0.719,0-0.95-0.305-1.178-0.968L272.258,74.988
	z"/>
<path fill="#6D6E70" d="M286.601,85.72c0,0.737-0.432,1.199-1.127,1.199c-0.692,0-1.126-0.462-1.126-1.199V74.216
	c0-0.737,0.434-1.198,1.126-1.198c0.695,0,1.127,0.461,1.127,1.198V85.72z M284.885,71.102c-0.438,0.179-0.644,0.231-0.873,0.231
	c-0.667,0-0.972-0.688-0.972-1.076c0-0.306,0.178-0.663,0.895-0.944l2.948-1.2c0.436-0.18,0.641-0.23,0.87-0.23
	c0.669,0,0.978,0.69,0.978,1.072c0,0.308-0.181,0.665-0.899,0.946L284.885,71.102z"/>
<path fill="#6D6E70" d="M290.269,74.216c0-0.737,0.436-1.198,1.126-1.198c0.691,0,1.127,0.461,1.127,1.198v1.154h0.052
	c0.512-1.047,1.77-2.353,3.078-2.353c0.794,0,1.258,0.511,1.258,1.15c0,0.637-0.464,1.047-1.412,1.227
	c-1.336,0.23-2.976,1.227-2.976,3.858v6.467c0,0.737-0.436,1.199-1.127,1.199c-0.69,0-1.126-0.462-1.126-1.199V74.216z
	 M290.189,69.927c-0.407-0.179-0.59-0.486-0.59-0.897c0-0.534,0.36-0.969,0.926-0.969c0.128,0,0.331,0.024,0.563,0.127l2.409,0.945
	l2.41-0.945c0.23-0.103,0.435-0.127,0.563-0.127c0.563,0,0.923,0.435,0.923,0.969c0,0.411-0.182,0.718-0.589,0.897l-3.308,1.405
	L290.189,69.927z"/>
<path fill="#6D6E70" d="M303.284,84.977c2.765,0,3.738-2.708,3.738-5.007c0-2.301-0.974-5.007-3.738-5.007
	c-2.771,0-3.746,2.706-3.746,5.007C299.538,82.269,300.514,84.977,303.284,84.977 M309.152,85.819c0,0.794-0.617,1.099-1.054,1.099
	c-0.461,0-1.051-0.305-1.051-1.099v-0.945h-0.052c-0.972,1.38-2.253,2.044-3.712,2.044c-3.847,0-6.004-3.347-6.004-6.949
	c0-3.604,2.157-6.951,6.004-6.951c1.563,0,2.662,0.665,3.712,1.816h0.052v-0.717c0-0.792,0.59-1.099,1.051-1.099
	c0.437,0,1.054,0.307,1.054,1.099V85.819z"/>
<path fill="#6D6E70" d="M312.879,70.233c0-0.74,0.438-1.203,1.133-1.203c0.69,0,1.127,0.463,1.127,1.203v2.937h0.921
	c0.744,0,1.128,0.359,1.128,0.975c0,0.611-0.384,0.969-1.128,0.969h-0.921V85.72c0,0.737-0.437,1.199-1.127,1.199
	c-0.694,0-1.133-0.462-1.133-1.199V75.113h-0.922c-0.743,0-1.126-0.358-1.126-0.969c0-0.616,0.383-0.975,1.126-0.975h0.922V70.233z"
	/>
<path fill="#6D6E70" d="M324.219,70.617c0.644,0,1.182-0.535,1.182-1.175c0-0.64-0.538-1.176-1.182-1.176
	c-0.641,0-1.175,0.536-1.175,1.176C323.044,70.082,323.578,70.617,324.219,70.617 M324.219,67.039c1.334,0,2.41,1.075,2.41,2.403
	c0,1.327-1.076,2.403-2.41,2.403c-1.331,0-2.409-1.076-2.409-2.403C321.81,68.114,322.888,67.039,324.219,67.039 M318.786,74.217
	c0-0.737,0.437-1.198,1.128-1.198c0.695,0,1.126,0.461,1.126,1.198v7.207c0,2.327,1.026,3.553,3.153,3.553
	c2.129,0,3.153-1.226,3.153-3.553v-7.207c0-0.737,0.438-1.198,1.128-1.198c0.693,0,1.129,0.461,1.129,1.198v7.286
	c0,3.985-2.664,5.416-5.41,5.416c-2.74,0-5.407-1.431-5.407-5.416V74.217z"/>
<path fill="#6D6E70" d="M340.658,78.104c0-1.941-1.078-3.141-2.92-3.141c-1.823,0-2.897,1.2-2.897,3.141v7.617
	c0,0.737-0.437,1.198-1.127,1.198c-0.695,0-1.133-0.461-1.133-1.198V74.217c0-0.737,0.438-1.198,1.133-1.198
	c0.69,0,1.127,0.461,1.127,1.198v0.411l0.051,0.05c0.538-0.689,1.384-1.659,3.433-1.659c1.337,0,2.72,0.561,3.746,2.3
	c0.998-1.432,2.203-2.3,4.176-2.3c2.102,0,4.742,1.327,4.742,5.162v7.54c0,0.737-0.436,1.198-1.127,1.198
	c-0.694,0-1.134-0.461-1.134-1.198v-7.617c0-1.941-1.07-3.141-2.918-3.141c-1.82,0-2.893,1.2-2.893,3.141v7.617
	c0,0.737-0.438,1.198-1.129,1.198c-0.695,0-1.13-0.461-1.13-1.198V78.104z"/>
<path fill="#231F20" d="M89.276,119.491h-0.192l-8.427,25.196h16.46L89.276,119.491z M75.719,116.306
	c2.811-7.626,5.23-14.194,13.07-14.194c8.041,0,10.459,6.568,13.267,14.194l15.106,40.644c2.032,5.498,2.324,7.334,2.324,9.652
	c0,3.861-3.099,6.37-7.553,6.37c-5.134,0-6.779-3.282-8.231-7.626l-1.934-6.18h-25.76l-1.935,6.18
	c-1.453,4.344-3.097,7.626-8.229,7.626c-4.454,0-7.554-2.509-7.554-6.37c0-2.318,0.292-4.154,2.324-9.652L75.719,116.306z"/>
<path fill="#231F20" d="M127.094,111.381c0-5.5,3.29-8.303,7.84-8.303c4.553,0,7.844,2.803,7.844,8.303v19.115l21.595-23.46
	c3.097-3.475,5.035-3.958,7.356-3.958c3.487,0,7.845,3.378,7.845,7.532c0,2.316-1.454,4.536-3.099,6.271l-18.685,18.73
	l20.429,22.108c2.421,2.603,4.356,4.631,4.356,7.527c0,5.02-3.873,7.724-8.229,7.724c-4.164,0-7.165-3.766-9.682-6.563
	l-21.886-24.522v22.783c0,5.503-3.291,8.303-7.844,8.303c-4.55,0-7.84-2.8-7.84-8.303V111.381z"/>
<path fill="#231F20" d="M205.048,164.669c0,5.504-3.297,8.302-7.845,8.302c-4.551,0-7.843-2.798-7.843-8.302v-53.288
	c0-5.5,3.292-8.303,7.843-8.303c4.548,0,7.845,2.803,7.845,8.303V164.669z"/>
<path fill="#231F20" d="M218.025,111.381c0-5.5,3.292-8.303,7.84-8.303c4.168,0,5.616,1.834,10.846,8.4l26.047,32.531h0.193v-32.629
	c0-5.5,3.292-8.303,7.846-8.303c4.55,0,7.84,2.803,7.84,8.303v53.288c0,5.503-3.29,8.303-7.84,8.303
	c-4.165,0-5.713-1.834-10.849-8.398l-26.045-32.534h-0.192v32.63c0,5.503-3.291,8.303-7.846,8.303c-4.548,0-7.84-2.8-7.84-8.303
	V111.381z"/>
<path fill="#231F20" d="M306.927,144.784c0,9.17,6.395,14.093,14.14,14.093c7.748,0,14.233-4.923,14.233-14.093v-33.401
	c0-5.501,3.293-8.304,7.843-8.304c4.554,0,7.846,2.803,7.846,8.304v33.401c0,18.149-12.49,29.153-29.922,29.153
	c-17.43,0-29.825-11.004-29.825-29.153v-33.401c0-5.501,3.295-8.304,7.845-8.304c4.551,0,7.841,2.803,7.841,8.304V144.784z"/>
<path fill="#231F20" d="M364.403,106.951c0.993,0,1.52,0.373,1.52,1.114c0,0.835-0.526,1.204-1.52,1.204h-1.617v-2.318H364.403z
	 M365.05,109.799h0.564c0.592,0,1.553-0.653,1.553-1.769c0-1.269-0.961-2.134-2.393-2.134h-3.262v7.272h1.273v-2.847H364
	c0.62,0,0.868,0.216,1.117,0.682l1.242,2.261l1.115-0.622l-1.055-1.856c-0.185-0.311-0.435-0.62-0.806-0.711l-0.564-0.153V109.799z
	 M364.122,115.091c-2.886,0-5.308-2.105-5.308-5.417c0-3.375,2.422-5.448,5.308-5.448c2.918,0,5.374,2.073,5.374,5.448
	C369.496,112.986,367.04,115.091,364.122,115.091 M364.122,116.235c3.665,0,6.708-2.51,6.708-6.561c0-4.12-3.043-6.596-6.708-6.596
	c-3.603,0-6.642,2.476-6.642,6.596C357.48,113.725,360.52,116.235,364.122,116.235"/>
<path fill="#EF3D42" d="M85.809,24.241c0.911,13.939-5.42,25.697-14.138,26.262c-8.717,0.565-16.523-10.28-17.432-24.217
	C53.333,12.345,59.665,0.588,68.38,0.022C77.098-0.544,84.902,10.299,85.809,24.241"/>
<path fill="#EF3D42" d="M19.969,16.171c-7.656,4.19-8.403,17.516-1.662,29.758c6.741,12.249,18.415,18.778,26.073,14.59
	c7.659-4.195,8.404-17.519,1.662-29.762C39.302,18.509,27.629,11.979,19.969,16.171"/>
<path fill="#EF3D42" d="M4.015,61.9c-6.471,5.689-4.959,17.946,3.379,27.377c8.335,9.431,20.345,12.465,26.815,6.777
	c6.475-5.689,4.964-17.944-3.38-27.377C22.493,59.247,10.485,56.213,4.015,61.9"/>
<path fill="#EF3D42" d="M107.623,25.057c-8.611-0.521-16.212,9.231-16.973,21.781c-0.76,12.548,5.603,23.145,14.215,23.661
	c8.613,0.524,16.212-9.232,16.972-21.779C122.6,36.171,116.234,25.578,107.623,25.057"/>
<path fill="#EF3D42" d="M60.202,137.874l8.921-24.005c2.917-7.909,6.918-18.768,19.666-18.768c12.955,0,16.952,10.86,19.871,18.79
	l2.365,6.362c9.354-5.291,14.113-15.732,10.985-24.805c-3.425-9.95-11.838-10.96-21.18-14.709
	c-11.44-4.592-12.766-14.882-27.153-15.25c-2.97-0.074-6.048,0.377-9.028,1.396c-2.981,1.018-5.687,2.549-7.982,4.428
	c-11.122,9.103-5.827,18.034-12.023,28.668c-5.058,8.677-10.486,14.443-7.643,24.578C39.153,132.233,49.02,139.095,60.202,137.874"
	/>
</svg>
