<svg xmlns="http://www.w3.org/2000/svg" width="159" height="51.965">
    <g data-name="Group 4" fill="#834811">
        <g data-name="Group 1">
            <path data-name="Path 1" d="M29.404 37.345c2.865 0 3.994 2.154 3.994 4.329s-1.108 4.287-3.994 4.287h-4.183v5.521h-1.38V37.345zm-4.183 1.359v5.918h4.078a2.632 2.632 0 0 0 2.74-2.928c0-1.485-.732-2.97-2.635-2.97z"/>
            <path data-name="Path 2" d="M42.662 41.904h1.38v9.6h-1.38v-1.59a3.525 3.525 0 0 1-3.179 1.778c-2.342 0-3.722-1.61-3.7-4.2v-5.588h1.38v5.584c0 1.757.837 2.865 2.321 2.865a3 3 0 0 0 3.179-3.2z"/>
            <path data-name="Path 3" d="M55.294 50.374a5.061 5.061 0 0 1-3.472 1.318 4.884 4.884 0 0 1-5.019-5.04 4.832 4.832 0 0 1 5.019-4.977 5.082 5.082 0 0 1 3.451 1.3l-.962.962a3.765 3.765 0 0 0-2.489-.9 3.526 3.526 0 0 0-3.66 3.618 3.576 3.576 0 0 0 3.66 3.681 3.681 3.681 0 0 0 2.489-.92zm-3.848-11.272l1.443-1.757h1.4l-1.945 2.76h-1.778l-1.945-2.76h1.4z"/>
            <path data-name="Path 4" d="M66.922 51.482h-1.38V49.83a4.2 4.2 0 0 1-3.618 1.84 4.8 4.8 0 0 1-4.914-5.04 4.749 4.749 0 0 1 4.914-4.977 4.173 4.173 0 0 1 3.618 1.778v-1.589h1.38zm-5-1.171a3.466 3.466 0 0 0 3.618-3.66 3.527 3.527 0 0 0-3.618-3.6 3.567 3.567 0 0 0-3.534 3.6 3.473 3.473 0 0 0 3.535 3.66zm.69-10.226h-1.4l1.443-2.76h1.694z"/>
            <path data-name="Path 5" d="M71.71 51.482h-1.359V36.697h1.359z"/>
            <path data-name="Path 6" d="M76.917 51.482h-1.359V36.697h1.359v8.993l3.806-3.785h1.924l-4.12 4.1 5.186 5.479h-1.861l-4.956-5.228z"/>
            <path data-name="Path 7" d="M94.276 51.482h-1.38V49.83a4.2 4.2 0 0 1-3.618 1.84 4.8 4.8 0 0 1-4.915-5.04 4.749 4.749 0 0 1 4.915-4.977 4.173 4.173 0 0 1 3.618 1.778v-1.589h1.38zm-4.977-1.171a3.466 3.466 0 0 0 3.618-3.66 3.527 3.527 0 0 0-3.618-3.6 3.589 3.589 0 0 0-3.555 3.618 3.443 3.443 0 0 0 3.534 3.639z"/>
        </g>
        <g data-name="Group 2">
            <path data-name="Path 8" d="M108.726 51.754h-1.3l-5.249-5.228v5.228h-.92V36.697h.92v9.432l3.911-3.973h1.338l-4.12 4.162z"/>
            <path data-name="Path 9" d="M110.253 51.754v-9.6h.941v2.492a3.212 3.212 0 0 1 3.137-2.7 3.785 3.785 0 0 1 1.422.272l-.167.9a3.388 3.388 0 0 0-1.255-.23c-2.468 0-3.116 2.844-3.137 5.165v3.7z"/>
            <path data-name="Path 10" d="M124.766 51.754v-5.626c0-2.008-1.192-3.242-2.886-3.242a3.2 3.2 0 0 0-3.388 3.492v5.375h-.962v-9.6h.941v1.882a3.524 3.524 0 0 1 3.388-2.091 3.485 3.485 0 0 1 3.534 2.489 3.63 3.63 0 0 1 3.7-2.489c2.259 0 3.848 1.589 3.827 4.162v5.626H132v-5.6c0-2.008-1.192-3.242-2.886-3.242a3.225 3.225 0 0 0-3.409 3.492v5.375z"/>
            <path data-name="Path 11" d="M136.393 37.852a.765.765 0 0 1 .084 1.527h-.084a.767.767 0 0 1-.146-1.527zm-.46 4.308v9.6h.92v-9.6z"/>
            <path data-name="Path 12" d="M147.017 42.155h1l-4.036 9.6h-1.088l-4.032-9.6h1l3.555 8.553z"/>
            <path data-name="Path 13" d="M158.059 49.684a4.629 4.629 0 0 1-4.055 2.283 5 5 0 1 1 0-10 4.568 4.568 0 0 1 4.057 2.259v-2.07h.941v9.6h-.941zm-4.057 1.338a3.976 3.976 0 0 0 4.057-3.973 4.058 4.058 0 1 0-4.057 3.973z"/>
        </g>
        <g data-name="Group 3">
            <path data-name="Path 14" d="M1.652 42.176a1.15 1.15 0 0 0 .586.439.962.962 0 0 0 1.067-.606 3.268 3.268 0 0 0 .021-1.276 4.248 4.248 0 0 1 .417-1.71 1.522 1.522 0 0 0 .146-1.443 1.108 1.108 0 0 0-.335-.4c-.941-.69-2.4.878-2.781 1.778s.231 2.403.879 3.218z"/>
            <path data-name="Path 15" d="M6.633 27.516a2.927 2.927 0 0 0-.586.209 1.921 1.921 0 0 0-1.213 1.819c.021.878.418 1.067 1.025 1.213s1.025.565 1.506.439.46-.523.753-1 .669-.648.857-1.108a1.276 1.276 0 0 0-.042-.983c-.422-.84-1.572-.756-2.3-.589z"/>
            <path data-name="Path 16" d="M9.849 26.68a1.965 1.965 0 0 1 .376.753c.042.314-.021.648.209.9.732.795 1.736-.4 2.07-1s.774-1.757-.1-2.342a1.778 1.778 0 0 0-1.321-.3 1.589 1.589 0 0 0-.606.293 1.379 1.379 0 0 0-.628 1.696z"/>
            <path data-name="Path 17" d="M8.198 32.661a.786.786 0 0 0-1.234.523 3.555 3.555 0 0 1-.23.753 3.148 3.148 0 0 1-.941.878c-.335.272-1.234 1.464-.732 2.28a2.6 2.6 0 0 0 3.472.23 3.622 3.622 0 0 0 .606-3.011 2.1 2.1 0 0 0-.941-1.653z"/>
            <path data-name="Path 18" d="M7.633 45.397a2.153 2.153 0 0 0-.523-1.443.794.794 0 0 0-.418-.188c-.335-.063-.669.021-1-.042l-.816-.23a1.318 1.318 0 0 0-.669-.042.837.837 0 0 0-.544.439 1.589 1.589 0 0 0-.084 1 2.477 2.477 0 0 0 .941 1.673 2.969 2.969 0 0 0 2.635-.188 1.108 1.108 0 0 0 .478-.979z"/>
            <path data-name="Path 19" d="M7.299 15.031l-.523-.711-.523.376.523.711a1.924 1.924 0 0 0 1.568.816h.878v-.627h-.878a1.3 1.3 0 0 1-1.045-.565z"/>
            <path data-name="Path 20" d="M25.325 15.345a7.068 7.068 0 0 1 1.3.23 7.131 7.131 0 0 1 2.719 1.464 7.194 7.194 0 0 1 .92.962l.481-.4a7.719 7.719 0 0 0-.774-.837 2.029 2.029 0 1 0-3.513-1.882 7.654 7.654 0 0 0-1.108-.167zm3.1-1.213a1.4 1.4 0 0 1 1.025.439 1.129 1.129 0 0 0-.481 1.4 7.759 7.759 0 0 0-1.882-.9 1.422 1.422 0 0 1 1.338-.941z"/>
            <path data-name="Path 21" d="M28.421 12.522a3.011 3.011 0 0 1 1.108.209l.23-.586a3.639 3.639 0 0 0-3.325.335l.335.523a3.011 3.011 0 0 1 1.652-.481z"/>
            <path data-name="Path 22" d="M3.179 47.049c-.627-.669-.251-1.568-.774-2.279a1.715 1.715 0 0 0-1.087-.606 3.2 3.2 0 0 0-1.318.04v.376a42.955 42.955 0 0 0 .586 7.048l1.464-.042.816-.063a4.015 4.015 0 0 0 1.589-.5 1.631 1.631 0 0 0 .606-.753 1.967 1.967 0 0 0-.251-2.049c-.502-.524-1.192-.691-1.631-1.172z"/>
            <path data-name="Path 23" d="M8.909 20.552a1.84 1.84 0 0 0-.753-1.171 42.871 42.871 0 0 0-4.308 7.4 1.694 1.694 0 0 0 1.108.125 4.664 4.664 0 0 0 1-.46c.774-.4 1.589-.042 2.363-.272a1.3 1.3 0 0 0 .711-.523 1.464 1.464 0 0 0 .146-1.108c-.084-.418-.335-.753-.439-1.171a2.677 2.677 0 0 1-.021-1.276 4.257 4.257 0 0 0 .193-1.544z"/>
            <path data-name="Path 24" d="M3.409 29.315a.962.962 0 0 0-.5-.335A42.578 42.578 0 0 0 .92 35.609a5.04 5.04 0 0 0 3.869-1.229 2.949 2.949 0 0 0 .795-1.046 1.61 1.61 0 0 0 0-1.3c-.356-.753-1.359-.732-1.778-1.422s-.126-.921-.397-1.297z"/>
            <path data-name="Path 25" d="M11.586 23.773c.753-.188.857-1.067.711-1.715a1.234 1.234 0 0 0-.314-.606c-.92-.92-2.384.167-2.091 1.318a1.171 1.171 0 0 0 .209.439 1.506 1.506 0 0 0 1.485.564z"/>
            <path data-name="Path 26" d="M46.05 26.052a6.483 6.483 0 0 0-.209-1.046 8.427 8.427 0 0 0-3.973-5.061l-.23-.125-.167-.084-.795-.5a24.092 24.092 0 0 1-6.357-5.876c-.167-.23-.335-.481-.523-.753a8.365 8.365 0 0 0-1.38-1.715 5.4 5.4 0 0 0-1.882-1.067 6.9 6.9 0 0 0-1.527-.272l-.9-.125a6.671 6.671 0 0 1-1.715-.606 6.818 6.818 0 0 1-2.635-2.386l-.167-.251a6.8 6.8 0 0 1-.9-2.844 8.427 8.427 0 0 1-.021-.857 2.656 2.656 0 0 0-.1-.878 2.321 2.321 0 0 0-1.071-1.34 2.259 2.259 0 0 0-.836-.25 2.321 2.321 0 0 0-2.572 2.008 2.279 2.279 0 0 0 .208 1.275 2.844 2.844 0 0 0 .606.774 4.245 4.245 0 0 1 .418.5 3.827 3.827 0 0 1-5.124 5.46l-.418-.293-.439-.356-1.924 1.9-7.419-3.508-.1-.042a2.3 2.3 0 0 0-2.844 3.43l4.036 5.437a4.015 4.015 0 0 0 3.262 1.694h8.546v-1.256H8.344a2.76 2.76 0 0 1-2.259-1.15l-3.952-5.354-.063-.084a1.046 1.046 0 0 1 1.3-1.568l10.728 5.081.544-1.15-2.011-.938.837-.816.063.042a5.019 5.019 0 0 0 1.464.606 5.082 5.082 0 0 0 6.086-6.316 4.977 4.977 0 0 0-.753-1.548 5.5 5.5 0 0 0-.565-.648 1.819 1.819 0 0 1-.356-.439 1.066 1.066 0 1 1 1.924-.92l.063.146a1.464 1.464 0 0 1 .042.481c0 .314 0 .648.021.983a8.093 8.093 0 0 0 1.067 3.367l.188.314a8.01 8.01 0 0 0 5.165 3.534l1.025.125a6 6 0 0 1 1.255.209 4.078 4.078 0 0 1 1.443.816 7.236 7.236 0 0 1 1.17 1.464 6.865 6.865 0 0 0 .565.795 25.013 25.013 0 0 0 1.9 2.259 25.262 25.262 0 0 0 4.771 3.946l.857.5.167.084a7.905 7.905 0 0 1 2.51 2.133 1.15 1.15 0 0 1-1.212-.417l-.523.376a1.8 1.8 0 0 0 .983.648 1.757 1.757 0 0 0 1.067-.063l.125.209a6.8 6.8 0 0 1 .774 2.321 1.652 1.652 0 0 1 .021.23.1.1 0 0 1-.1.1 11 11 0 0 1-7.131-3.325 1.8 1.8 0 0 0 .314-.837l-.627-.063a1.15 1.15 0 0 1-.335.69 1.129 1.129 0 0 1-.69.335l.063.627a1.8 1.8 0 0 0 .816-.314 11.669 11.669 0 0 0 4.684 2.949l1.15.376a3.119 3.119 0 0 1-3.409.084 15.956 15.956 0 0 0-5.291-1.861 15.266 15.266 0 0 0-2.97-.167l-1.276.1a14.5 14.5 0 0 1-1.61.1 14.158 14.158 0 0 1-7.3-2.008 4.015 4.015 0 0 0-4.977.523l-.1.125a24.991 24.991 0 0 0-3.785 5.6 1.61 1.61 0 0 1-.795.272 1.962 1.962 0 0 0-2.133.941c-.606 1.192 0 2.217 1.4 2.7a25.451 25.451 0 0 0-1 5.563 2.384 2.384 0 0 0-.544-.042c-.481.021-.92.251-1.4.251-.816 0-1.527-.627-2.363-.23a2.049 2.049 0 0 0-1.067 1.987 2.635 2.635 0 0 0 .46 1.15 2.091 2.091 0 0 0 1.129.837 3.491 3.491 0 0 0 1.61 0 1.025 1.025 0 0 1 1.1 1.047 1.026 1.026 0 0 0 1.171 1.087h.209q.125.753.314 1.485c-.251.293-.92.251-1.255.293a2.159 2.159 0 0 0-1.839 1.129c-.376.732-.795 2.635.356 3.262s2.321-.251 2.76-.544a1.117 1.117 0 0 1 1.38.1 4.581 4.581 0 0 1 .46.983h1.4a24.008 24.008 0 0 1-.356-21.5 23.736 23.736 0 0 1 3.743-5.584 2.76 2.76 0 0 1 3.513-.356l.606.356.648.335q.648.314 1.318.565t1.359.439q.69.188 1.4.314t1.422.188l1.213.042c.586 0 1.171-.063 1.736-.1l1.213-.084a14.1 14.1 0 0 1 2.719.146 14.7 14.7 0 0 1 4.894 1.713 4.18 4.18 0 0 0 5.019-.376l.272-.293a1.652 1.652 0 0 0 1.255-.042 1.266 1.266 0 0 0 .522-1.313z"/>
        </g>
    </g>
</svg>